# xmcd
#
# Track frame offsets: 
#        150
#        15849
#        27325
#        43341
#        61700
#        73006
#        86868
#        104390
#        120827
#        135568
#        150314
#        164168
#
# Disc length: 2416 seconds
#
# Revision: 0
# Processed by: cddbd v1.5.2PL0 Copyright (c) Steve Scherf et al.
# Submitted via: ExactAudioCopy v1.3
#
DISCID=94096e0c
DTITLE=Jurjak - Lemon Blues
DYEAR=2016
DGENRE=Blues
TTITLE0=Doua Fete
TTITLE1=Future Ex
TTITLE2=Looking For Trouble
TTITLE3=In Your Mind
TTITLE4=Un Minut
TTITLE5=Bucuresti
TTITLE6=Time To Move
TTITLE7=Soul Mate Picture
TTITLE8=Timp De Iubit
TTITLE9=Cowboy
TTITLE10=The Thrill Is Gone
TTITLE11=Soapte
EXTD=
EXTT0=
EXTT1=
EXTT2=
EXTT3=
EXTT4=
EXTT5=
EXTT6=
EXTT7=
EXTT8=
EXTT9=
EXTT10=
EXTT11=
PLAYORDER=
